<svg xmlns="http://www.w3.org/2000/svg" width="129.92" height="76.417" viewBox="0 0 129.92 76.417"><defs><style>.a{fill:#4f91b3;}.b{isolation:isolate;}.c{fill:#083d58;}</style></defs><g transform="translate(21)"><path class="a" d="M363.839,360.939c21.671,0,36.049-8.278,36.049-13.754s-14.378-13.754-36.049-13.754-36.049,8.278-36.049,13.754,14.378,13.754,36.049,13.754m0,8.023c-24.341,0-44.072-9.75-44.072-21.777s19.732-21.777,44.072-21.777,44.072,9.75,44.072,21.777S388.179,368.961,363.839,368.961Z" transform="translate(-319.767 -325.408)"/></g><g class="b" transform="translate(0 54.61)"><g class="b"><path class="c" d="M273.326,447.928l-.025,1.228q.722-.073,1.588-.072h6.234a5.029,5.029,0,0,1-.073.986,1.433,1.433,0,0,1-1.636,1.2h-7.148a1.4,1.4,0,0,1-1.071-.422,1.633,1.633,0,0,1-.4-1.167V434.956l.168-.145h9.676a5.8,5.8,0,0,1,.072,1.023,3.188,3.188,0,0,1-.193,1.143H273.3l.025,1.564v3.369l1.492-.023h4.525a4.092,4.092,0,0,1,.12,1.071,3.815,3.815,0,0,1-.12,1.047h-4.525q-.939,0-1.492-.023Z" transform="translate(-270.799 -434.69)"/><path class="c" d="M315.881,440.2a3.292,3.292,0,0,1,.121.938,3.044,3.044,0,0,1-.121.914l-2.96-.048v7.176q0,1.056.987,1.057h1.66a3.176,3.176,0,0,1,.194,1.083,3.383,3.383,0,0,1-.048.719,22.194,22.194,0,0,1-2.7.171,2.213,2.213,0,0,1-2.527-2.479v-7.7l-1.78.023a3.882,3.882,0,0,1-.1-.9,4.533,4.533,0,0,1,.1-.95l1.78.048v-2.119a2,2,0,0,1,.289-1.228,1.26,1.26,0,0,1,1.035-.36h.939l.168.168v3.562Z" transform="translate(-289.696 -435.556)"/><path class="c" d="M350.282,450.33h-7.076a4.71,4.71,0,0,0,.709,2.552,2.472,2.472,0,0,0,2.155.889,6.162,6.162,0,0,0,1.552-.216,7.735,7.735,0,0,0,1.72-.7,2.775,2.775,0,0,1,.794,1.588,7.685,7.685,0,0,1-4.525,1.349,5.019,5.019,0,0,1-2.31-.482,4.131,4.131,0,0,1-1.529-1.323,5.656,5.656,0,0,1-.854-2.01,11.349,11.349,0,0,1-.265-2.515,8.728,8.728,0,0,1,.337-2.467,5.983,5.983,0,0,1,.964-1.962,4.457,4.457,0,0,1,1.552-1.287,4.534,4.534,0,0,1,2.082-.47,5.187,5.187,0,0,1,2.057.386,4.341,4.341,0,0,1,1.529,1.07,4.614,4.614,0,0,1,.951,1.637,6.307,6.307,0,0,1,.326,2.057q0,.482-.037.952A7.875,7.875,0,0,1,350.282,450.33Zm-4.621-5.2q-2.287,0-2.454,3.394h4.862v-.312a3.845,3.845,0,0,0-.59-2.226A2.059,2.059,0,0,0,345.66,445.13Z" transform="translate(-305.708 -438.921)"/><path class="c" d="M379.433,444.89a2.179,2.179,0,0,1,.914-1.324,2.827,2.827,0,0,1,2.19,2.142,3.258,3.258,0,0,1,3.153-2.142,6.333,6.333,0,0,1,1.276.146,4.374,4.374,0,0,1-.6,2.358,5.07,5.07,0,0,0-.988-.121,2.855,2.855,0,0,0-2.574,1.83v7.846a8.043,8.043,0,0,1-2.479,0v-8.256A3.254,3.254,0,0,0,379.433,444.89Z" transform="translate(-325.087 -439.066)"/><path class="c" d="M422.4,447.418v5.609a4.737,4.737,0,0,0,.41,2.189,2.2,2.2,0,0,1-1.468.53,1.333,1.333,0,0,1-1.12-.4,1.966,1.966,0,0,1-.3-1.192v-6.113a3.6,3.6,0,0,0-.324-1.78,1.208,1.208,0,0,0-1.12-.529,3.747,3.747,0,0,0-1.625.4,4.611,4.611,0,0,0-1.456,1.095v8.352a5.822,5.822,0,0,1-1.227.1q-.386,0-.7-.024a4.889,4.889,0,0,1-.553-.073V443.735l.144-.145H414q1.3,0,1.372,1.492a5.557,5.557,0,0,1,3.827-1.613,2.809,2.809,0,0,1,2.408,1.071A4.725,4.725,0,0,1,422.4,447.418Z" transform="translate(-341.821 -439.018)"/><path class="c" d="M455.329,441.309v9.821a8.046,8.046,0,0,1-2.479,0v-8.809a1.516,1.516,0,0,0-.241-.964,1.015,1.015,0,0,0-.819-.289h-.264a4.113,4.113,0,0,1-.121-.889,4.446,4.446,0,0,1,.121-.914,12.456,12.456,0,0,1,1.517-.1h.337a1.824,1.824,0,0,1,1.432.577A2.259,2.259,0,0,1,455.329,441.309ZM452.32,437a2.345,2.345,0,0,1-.217-1.059c0-.658.121-1.047.361-1.168a3.118,3.118,0,0,1,1.2-.2,2.305,2.305,0,0,1,1.227.241q.265.216.29,1.132a1.637,1.637,0,0,1-.29,1.107,2.1,2.1,0,0,1-1.227.266A2.245,2.245,0,0,1,452.32,437Z" transform="translate(-361.054 -434.57)"/><path class="c" d="M485.28,440.2a3.35,3.35,0,0,1,.12.938,3.1,3.1,0,0,1-.12.914l-2.961-.048v7.176q0,1.056.986,1.057h1.661a3.163,3.163,0,0,1,.193,1.083,3.28,3.28,0,0,1-.048.719,22.171,22.171,0,0,1-2.695.171,2.212,2.212,0,0,1-2.527-2.479v-7.7l-1.782.023a3.965,3.965,0,0,1-.1-.9,4.635,4.635,0,0,1,.1-.95l1.782.048v-2.119a2,2,0,0,1,.289-1.228,1.26,1.26,0,0,1,1.034-.36h.939l.169.168v3.562Z" transform="translate(-374.349 -435.556)"/><path class="c" d="M519.657,443.952l-3.176,11.288a20.885,20.885,0,0,1-.9,2.588,6.368,6.368,0,0,1-1.084,1.745,3.683,3.683,0,0,1-1.444.986,5.491,5.491,0,0,1-1.938.313c-.129,0-.321-.009-.577-.025s-.514-.044-.77-.084a5.481,5.481,0,0,1-.674-.145c-.193-.056-.289-.132-.289-.228a3.366,3.366,0,0,1,.144-.914,1.741,1.741,0,0,1,.409-.77,5.126,5.126,0,0,0,1.878.312,2.146,2.146,0,0,0,1.684-.734,6.033,6.033,0,0,0,1.107-2.25l.073-.289a2.384,2.384,0,0,1-1.2-.3,1.71,1.71,0,0,1-.649-1l-3.177-10.517a4.039,4.039,0,0,1,1.516-.362q.939,0,1.251,1.108l1.638,5.536q.119.384.337,1.263t.553,2.275q.024.167.217.168l2.647-10.18a2.909,2.909,0,0,1,.445-.072c.169-.017.357-.025.565-.025a6.819,6.819,0,0,1,.686.036,3.442,3.442,0,0,1,.663.133Z" transform="translate(-389.737 -439.066)"/></g></g></svg>