<svg xmlns="http://www.w3.org/2000/svg" width="146" height="80.941" viewBox="0 0 146 80.941"><defs><style>.a{fill:none;}.b,.d{fill:#fff;}.b{stroke:rgba(0,0,0,0);font-size:26px;font-family:Signika-Regular, Signika;letter-spacing:0.3em;}.c,.d{stroke:none;}</style></defs><g transform="translate(2)"><g class="a" transform="translate(26.944)"><path class="c" d="M44.323,43.278c24.479,0,44.323-9.688,44.323-21.639S68.8,0,44.323,0,0,9.688,0,21.639,19.844,43.278,44.323,43.278Z"/><path class="d" d="M 44.3228874206543 36.27778625488281 C 67.1063232421875 36.27778625488281 81.64577484130859 27.60765838623047 81.64577484130859 21.63889503479004 C 81.64577484130859 15.67013168334961 67.1063232421875 7.000004291534424 44.3228874206543 7.000004291534424 C 21.53945159912109 7.000004291534424 6.999996662139893 15.67013168334961 6.999996662139893 21.63889503479004 C 6.999996662139893 27.60765838623047 21.53945159912109 36.27778625488281 44.3228874206543 36.27778625488281 M 44.3228874206543 43.27778625488281 C 19.84403228759766 43.27778625488281 -3.488436504994752e-06 33.5897331237793 -3.488436504994752e-06 21.63889503479004 C -3.488436504994752e-06 9.688058853149414 19.84403228759766 4.125698978896253e-06 44.3228874206543 4.125698978896253e-06 C 68.8017578125 4.125698978896253e-06 88.64577484130859 9.688058853149414 88.64577484130859 21.63889503479004 C 88.64577484130859 33.5897331237793 68.8017578125 43.27778625488281 44.3228874206543 43.27778625488281 Z"/></g><text class="b" transform="translate(71 71.941)"><tspan x="-71.5" y="0">Eternity</tspan></text></g></svg>