<svg xmlns="http://www.w3.org/2000/svg" width="29.809" height="28.647" viewBox="0 0 29.809 28.647">
  <path id="Path_6540" data-name="Path 6540" d="M-19.626-15.521a9.95,9.95,0,0,1-.656-3.392,14.515,14.515,0,0,1,1.86-6.346l5.416-10.668a9.389,9.389,0,0,1,2.79-2.954q2.243-1.751,2.9-1.751.93,0,.547.985L-9.45-30.128a24.685,24.685,0,0,0-.985,6.4A18.542,18.542,0,0,0-8.63-15.959q.438,1.313-.711,1.641l-7.714,2.243q-1.2.328-1.587-.547Zm16.576,0a11.869,11.869,0,0,1-.656-3.611A14.882,14.882,0,0,1-1.9-25.259L3.242-35.927a9.389,9.389,0,0,1,2.79-2.954q2.243-1.751,2.9-1.751.766,0,.547.985L7.017-30.128a25.4,25.4,0,0,0-.875,6.182,20.029,20.029,0,0,0,1.805,7.987q.438,1.313-.711,1.641L-.478-12.075q-1.2.328-1.587-.547Z" transform="translate(20.282 40.632)" fill="#4f91b3" opacity="0.999"/>
</svg>
