<svg xmlns="http://www.w3.org/2000/svg" width="29.829" height="28.647" viewBox="0 0 29.829 28.647">
  <path id="Path_6539" data-name="Path 6539" d="M8.882-37.084a9.95,9.95,0,0,1,.656,3.392,14.515,14.515,0,0,1-1.86,6.346L2.262-16.678a9.187,9.187,0,0,1-2.79,3.009q-2.188,1.7-2.9,1.7-.985,0-.547-.985l2.681-9.519a24.685,24.685,0,0,0,.985-6.4,18.542,18.542,0,0,0-1.805-7.768q-.438-1.313.711-1.641L6.311-40.53q1.2-.328,1.587.547Zm-16.576,0a12.259,12.259,0,0,1,.656,3.611,14.591,14.591,0,0,1-1.805,6.127l-5.142,10.668a9.187,9.187,0,0,1-2.79,3.009q-2.188,1.7-2.9,1.7-.821,0-.547-.985l2.462-9.519a25.4,25.4,0,0,0,.875-6.182,20.3,20.3,0,0,0-1.805-7.987q-.438-1.313.711-1.641l7.714-2.243q1.2-.328,1.587.547Z" transform="translate(20.291 40.62)" fill="#4f91b3" opacity="0.999"/>
</svg>
