<svg xmlns="http://www.w3.org/2000/svg" width="98" height="44.141" viewBox="0 0 98 44.141">
  <g id="Group_12291" data-name="Group 12291" transform="translate(-29 -1010)">
    <path id="Path_6541" data-name="Path 6541" d="M24.515,0C38.054,0,49.03,9.881,49.03,22.07v22.07H0V22.07C0,9.881,10.976,0,24.515,0Z" transform="translate(53.515 1010)" fill="#fff"/>
    <path id="Intersection_2" data-name="Intersection 2" d="M25,25v0ZM0,25V.02A24.85,24.85,0,0,0,1.965,9.732a24.925,24.925,0,0,0,5.358,7.946,24.919,24.919,0,0,0,7.946,5.358A24.835,24.835,0,0,0,24.729,25H0Z" transform="translate(102 1029.141)" fill="#fff"/>
    <path id="Intersection_1" data-name="Intersection 1" d="M.181,25a24.845,24.845,0,0,0,9.551-1.964,24.911,24.911,0,0,0,7.946-5.358,24.9,24.9,0,0,0,5.358-7.946A24.832,24.832,0,0,0,25,.179V25ZM0,25V0H0V25Z" transform="translate(29 1029.14)" fill="#fff"/>
    <g id="baseline-arrow_back-24px" transform="translate(63.004 1046.836) rotate(-90)" opacity="0.997">
      <g id="baseline-arrow_back-24px-2" data-name="baseline-arrow_back-24px" opacity="0.996">
        <path id="Path_1968" data-name="Path 1968" d="M0,0H29.769V29.769H0Z" fill="none"/>
        <path id="Path_1969" data-name="Path 1969" d="M20.846,11.37H8.033l5.886-5.886L12.423,4,4,12.423l8.423,8.423,1.485-1.485L8.033,13.476H20.846Z" transform="translate(2.462 2.462)" fill="#083d58"/>
      </g>
    </g>
  </g>
</svg>
