<svg xmlns="http://www.w3.org/2000/svg" width="16.934" height="16.934" viewBox="0 0 16.934 16.934">
  <path id="Symbol" d="M0,2.474A8.53,8.53,0,0,0,8.471-5.993,8.542,8.542,0,0,0,0-14.46,8.522,8.522,0,0,0-8.463-5.993,8.524,8.524,0,0,0,0,2.474Zm-2.98-4.781a.7.7,0,0,1-.706-.706.653.653,0,0,1,.216-.481l2.474-2.49-2.474-2.49a.64.64,0,0,1-.216-.481.7.7,0,0,1,.706-.689.646.646,0,0,1,.481.208L0-6.956,2.5-9.446a.617.617,0,0,1,.473-.216.7.7,0,0,1,.706.7.629.629,0,0,1-.208.481l-2.49,2.5L3.466-3.511a.717.717,0,0,1,.208.5.7.7,0,0,1-.706.706.682.682,0,0,1-.49-.208L0-5.005l-2.474,2.49A.683.683,0,0,1-2.976-2.308Z" transform="translate(8.463 14.46)" fill="#6b696a"/>
</svg>
