<svg xmlns="http://www.w3.org/2000/svg" width="71.92" height="42.417" viewBox="0 0 71.92 42.417"><defs><style>.a{fill:#fff;}.b{isolation:isolate;}</style></defs><g transform="translate(11.625)"><path class="a" d="M344.164,345.13c12,0,19.956-4.6,19.956-7.634s-7.959-7.634-19.956-7.634-19.956,4.6-19.956,7.634,7.959,7.634,19.956,7.634m0,4.453c-13.474,0-24.4-5.412-24.4-12.088s10.923-12.088,24.4-12.088,24.4,5.412,24.4,12.088S357.638,349.583,344.164,349.583Z" transform="translate(-319.767 -325.408)"/></g><g class="b" transform="translate(0 30.313)"><g class="b"><path class="a" d="M272.2,442.092l-.014.682a8.8,8.8,0,0,1,.879-.04h3.451a2.8,2.8,0,0,1-.04.547.794.794,0,0,1-.906.669h-3.957a.775.775,0,0,1-.593-.234.908.908,0,0,1-.219-.648v-8.176l.093-.08h5.357a3.232,3.232,0,0,1,.04.568,1.774,1.774,0,0,1-.107.634h-4l.014.868v1.87l.826-.013h2.5a2.277,2.277,0,0,1,.066.595,2.123,2.123,0,0,1-.066.581h-2.5q-.52,0-.826-.013Z" transform="translate(-270.799 -434.744)"/><path class="a" d="M312.637,438.574a1.833,1.833,0,0,1,.067.521,1.7,1.7,0,0,1-.067.507L311,439.575v3.983q0,.586.546.586h.919a1.768,1.768,0,0,1,.107.6,1.884,1.884,0,0,1-.027.4,12.249,12.249,0,0,1-1.493.095,1.227,1.227,0,0,1-1.4-1.376v-4.275l-.986.013a2.16,2.16,0,0,1-.053-.5,2.522,2.522,0,0,1,.053-.527l.986.027v-1.176a1.114,1.114,0,0,1,.16-.682.7.7,0,0,1,.573-.2h.52l.093.093v1.977Z" transform="translate(-298.141 -435.995)"/><path class="a" d="M345.984,447.192h-3.917a2.619,2.619,0,0,0,.393,1.416,1.367,1.367,0,0,0,1.193.494,3.4,3.4,0,0,0,.859-.12,4.275,4.275,0,0,0,.952-.388,1.541,1.541,0,0,1,.44.882,4.246,4.246,0,0,1-2.5.749,2.773,2.773,0,0,1-1.279-.268,2.289,2.289,0,0,1-.846-.734,3.144,3.144,0,0,1-.473-1.116,6.314,6.314,0,0,1-.147-1.4,4.857,4.857,0,0,1,.186-1.369,3.324,3.324,0,0,1,.534-1.089,2.469,2.469,0,0,1,.859-.715,2.5,2.5,0,0,1,1.152-.261,2.865,2.865,0,0,1,1.139.214,2.4,2.4,0,0,1,.846.594,2.563,2.563,0,0,1,.526.909,3.51,3.51,0,0,1,.18,1.142q0,.267-.02.528A4.387,4.387,0,0,1,345.984,447.192Zm-2.558-2.886q-1.266,0-1.359,1.884h2.692v-.173a2.139,2.139,0,0,0-.326-1.236A1.139,1.139,0,0,0,343.425,444.306Z" transform="translate(-321.309 -440.859)"/><path class="a" d="M379.433,444.3a1.209,1.209,0,0,1,.506-.735,1.567,1.567,0,0,1,1.212,1.189,1.8,1.8,0,0,1,1.746-1.189,3.5,3.5,0,0,1,.706.081,2.433,2.433,0,0,1-.333,1.309,2.8,2.8,0,0,0-.547-.067A1.58,1.58,0,0,0,381.3,445.9v4.355a4.442,4.442,0,0,1-1.372,0v-4.583A1.809,1.809,0,0,0,379.433,444.3Z" transform="translate(-349.349 -441.068)"/><path class="a" d="M418.168,445.661v3.113a2.636,2.636,0,0,0,.227,1.215,1.216,1.216,0,0,1-.813.294.737.737,0,0,1-.62-.22,1.093,1.093,0,0,1-.167-.662v-3.393a2,2,0,0,0-.179-.988.668.668,0,0,0-.62-.294,2.07,2.07,0,0,0-.9.22,2.553,2.553,0,0,0-.806.608v4.636a3.214,3.214,0,0,1-.679.053q-.214,0-.387-.013a2.694,2.694,0,0,1-.306-.04v-6.573l.08-.08h.519q.719,0,.76.828a3.072,3.072,0,0,1,2.118-.9,1.553,1.553,0,0,1,1.333.595A2.628,2.628,0,0,1,418.168,445.661Z" transform="translate(-373.561 -440.999)"/><path class="a" d="M453.577,438.31v5.451a4.443,4.443,0,0,1-1.372,0v-4.889a.843.843,0,0,0-.133-.535.561.561,0,0,0-.454-.161h-.146a2.288,2.288,0,0,1-.067-.494,2.474,2.474,0,0,1,.067-.508,6.87,6.87,0,0,1,.84-.053h.186a1.008,1.008,0,0,1,.793.32A1.256,1.256,0,0,1,453.577,438.31Zm-1.665-2.391a1.3,1.3,0,0,1-.12-.588c0-.365.067-.581.2-.648a1.721,1.721,0,0,1,.666-.114,1.273,1.273,0,0,1,.679.134q.147.12.16.628a.91.91,0,0,1-.16.614,1.159,1.159,0,0,1-.679.147A1.24,1.24,0,0,1,451.912,435.919Z" transform="translate(-401.389 -434.57)"/><path class="a" d="M482.035,438.574a1.865,1.865,0,0,1,.066.521,1.724,1.724,0,0,1-.066.507l-1.639-.027v3.983q0,.586.546.586h.919a1.76,1.76,0,0,1,.107.6,1.825,1.825,0,0,1-.027.4,12.236,12.236,0,0,1-1.492.095,1.226,1.226,0,0,1-1.4-1.376v-4.275l-.987.013a2.208,2.208,0,0,1-.053-.5,2.581,2.581,0,0,1,.053-.527l.987.027v-1.176a1.114,1.114,0,0,1,.16-.682.7.7,0,0,1,.572-.2h.52l.094.093v1.977Z" transform="translate(-420.627 -435.995)"/><path class="a" d="M514.812,443.78l-1.758,6.265a11.608,11.608,0,0,1-.5,1.436,3.535,3.535,0,0,1-.6.969,2.038,2.038,0,0,1-.8.547,3.033,3.033,0,0,1-1.073.174c-.071,0-.178-.005-.32-.014s-.284-.024-.426-.047a3.02,3.02,0,0,1-.373-.08c-.107-.031-.16-.073-.16-.127a1.872,1.872,0,0,1,.08-.508.966.966,0,0,1,.226-.427,2.83,2.83,0,0,0,1.04.173,1.187,1.187,0,0,0,.932-.408,3.352,3.352,0,0,0,.613-1.249l.04-.16a1.317,1.317,0,0,1-.667-.167.949.949,0,0,1-.359-.555l-1.759-5.838a2.232,2.232,0,0,1,.839-.2q.52,0,.693.615l.907,3.073q.066.213.186.7t.306,1.263a.1.1,0,0,0,.12.093l1.466-5.651a1.61,1.61,0,0,1,.246-.04c.094-.009.2-.014.313-.014a3.76,3.76,0,0,1,.38.02,1.9,1.9,0,0,1,.367.074Z" transform="translate(-442.891 -441.068)"/></g></g></svg>