<svg xmlns="http://www.w3.org/2000/svg" width="34.671" height="28.387" viewBox="0 0 34.671 28.387">
  <g id="Group_9499" data-name="Group 9499" transform="translate(0 0)">
    <g id="Group_885" data-name="Group 885">
      <path id="Path_1988" data-name="Path 1988" d="M266.569,73.2c.217,0,.433.217.867.217a2.182,2.182,0,0,0,.65-.217l16.252-11.485a4.546,4.546,0,0,0-4.117-2.817h-26a4.444,4.444,0,0,0-4.117,2.817Z" transform="translate(-249.667 -58.9)" fill="#fff"/>
      <path id="Path_1989" data-name="Path 1989" d="M270.7,72.461a5.465,5.465,0,0,1-6.5,0L249.9,62.6V78.463a4.323,4.323,0,0,0,4.334,4.287h26a4.323,4.323,0,0,0,4.334-4.287V62.6Z" transform="translate(-249.9 -54.363)" fill="#fff"/>
    </g>
  </g>
</svg>
