<svg xmlns="http://www.w3.org/2000/svg" width="27.752" height="25.661" viewBox="0 0 27.752 25.661">
  <path id="WhatsApp" d="M37.971,29.114c-.172-.282-.627-.452-1.309-.791S32.62,26.345,32,26.12s-1.083-.339-1.537.339-1.763,2.2-2.163,2.656-.8.51-1.48.171a18.69,18.69,0,0,1-5.49-3.362,20.426,20.426,0,0,1-3.8-4.691c-.4-.678-.042-1.044.3-1.381.308-.3.683-.791,1.025-1.187a4.541,4.541,0,0,0,.682-1.13,1.234,1.234,0,0,0-.057-1.187c-.17-.339-1.537-3.672-2.106-5.029s-1.137-1.13-1.536-1.13-.854-.057-1.309-.057a2.52,2.52,0,0,0-1.821.847,7.576,7.576,0,0,0-2.389,5.651c0,3.334,2.446,6.555,2.788,7.006s4.722,7.515,11.664,10.228,6.942,1.807,8.194,1.693,4.039-1.639,4.61-3.22A5.648,5.648,0,0,0,37.971,29.114Z" transform="translate(-10.317 -10.13)" fill="#4f91b3"/>
</svg>
