<svg id="whatsapp-logo" xmlns="http://www.w3.org/2000/svg" width="38.263" height="38.263" viewBox="0 0 38.263 38.263">
  <path id="WhatsApp" d="M38.263,18.639A18.815,18.815,0,0,1,10.4,34.958L0,38.263l3.391-10A18.442,18.442,0,0,1,.7,18.639a18.784,18.784,0,0,1,37.568,0ZM19.479,2.968A15.749,15.749,0,0,0,3.687,18.639,15.506,15.506,0,0,0,6.7,27.826l-1.973,5.82,6.069-1.929A15.808,15.808,0,0,0,35.272,18.639,15.75,15.75,0,0,0,19.479,2.968Zm9.485,19.963c-.116-.19-.423-.3-.883-.533s-2.725-1.334-3.146-1.486-.73-.229-1.036.228-1.189,1.486-1.458,1.791-.537.344-1,.115a12.6,12.6,0,0,1-3.7-2.267,13.774,13.774,0,0,1-2.561-3.163c-.268-.457-.028-.7.2-.931.207-.2.461-.534.691-.8a3.062,3.062,0,0,0,.46-.762.832.832,0,0,0-.038-.8c-.115-.228-1.036-2.476-1.42-3.391s-.767-.762-1.036-.762-.576-.038-.883-.038a1.7,1.7,0,0,0-1.228.571,5.109,5.109,0,0,0-1.611,3.811,8.84,8.84,0,0,0,1.88,4.725c.23.3,3.184,5.068,7.865,6.9s4.681,1.218,5.526,1.142A4.657,4.657,0,0,0,28.7,25.1,3.809,3.809,0,0,0,28.964,22.931Z" fill="#4f91b3"/>
</svg>
