<svg xmlns="http://www.w3.org/2000/svg" width="26.873" height="26.873" viewBox="0 0 26.873 26.873">
  <path id="WhatsApp" d="M26.873,13.09A13.214,13.214,0,0,1,7.3,24.552L0,26.873l2.381-7.023A12.952,12.952,0,0,1,.488,13.09a13.193,13.193,0,0,1,26.384,0ZM13.681,2.085A11.061,11.061,0,0,0,2.589,13.09,10.89,10.89,0,0,0,4.7,19.543L3.316,23.63l4.262-1.355a11.1,11.1,0,0,0,17.193-9.184A11.062,11.062,0,0,0,13.681,2.085Zm6.662,14.02c-.082-.133-.3-.214-.62-.374s-1.914-.937-2.21-1.044-.513-.161-.728.16-.835,1.044-1.024,1.258-.377.242-.7.081a8.851,8.851,0,0,1-2.6-1.592,9.674,9.674,0,0,1-1.8-2.222c-.188-.321-.02-.494.142-.654.146-.144.324-.375.485-.562a2.151,2.151,0,0,0,.323-.535.585.585,0,0,0-.027-.562c-.081-.16-.728-1.739-1-2.382s-.538-.535-.727-.535-.4-.027-.62-.027a1.193,1.193,0,0,0-.863.4,3.588,3.588,0,0,0-1.131,2.676,6.208,6.208,0,0,0,1.32,3.318c.162.214,2.236,3.559,5.524,4.844s3.288.856,3.881.8a3.271,3.271,0,0,0,2.183-1.525A2.675,2.675,0,0,0,20.342,16.105Z" fill="#083d58"/>
</svg>
