<svg xmlns="http://www.w3.org/2000/svg" width="86" height="51" viewBox="0 0 86 51"><g><g><g><g><path fill="#fff" d="M43.146 29.028C27.05 29.028 14 22.595 14 14.66 14 6.725 27.049.293 43.146.293S72.292 6.725 72.292 14.66c0 7.935-13.05 14.368-29.146 14.368zm0-5.293c14.332 0 23.84-5.462 23.84-9.075 0-3.612-9.508-9.074-23.84-9.074s-23.84 5.462-23.84 9.074c0 3.613 9.508 9.075 23.84 9.075"/></g></g><g><g><g><path fill="#fff" d="M1.67 45.056l-.015.81c.318-.032.668-.047 1.05-.047h4.123c0 .286-.016.503-.048.65-.096.53-.456.795-1.082.795H.97c-.297 0-.533-.093-.708-.278C.087 46.8 0 46.544 0 46.216v-9.718l.11-.096h6.4c.032.17.047.395.047.675s-.042.532-.127.754H1.655l.016 1.032v2.223l.987-.015H5.65c.053.19.08.426.08.707 0 .28-.027.51-.08.69H2.658c-.414 0-.744-.005-.987-.016z"/></g><g><path fill="#fff" d="M17.317 39.388c.054.18.08.386.08.619 0 .233-.026.434-.08.603l-1.957-.032v4.734c0 .465.217.698.652.698h1.098c.085.235.128.473.128.714 0 .242-.011.4-.032.474a14.72 14.72 0 0 1-1.783.113c-1.114 0-1.671-.545-1.671-1.636v-5.08l-1.178.015a2.984 2.984 0 0 1 0-1.222l1.178.032v-1.398c0-.381.063-.65.19-.81.128-.16.356-.238.685-.238h.621l.112.11v2.351z"/></g><g><path fill="#fff" d="M26.422 40.42c.54 0 .941.188 1.202.564.26.375.39.865.39 1.468v.206h-3.216c.075-1.492.615-2.239 1.624-2.239zm3.056 3.43c.042-.212.072-.422.087-.627a8.03 8.03 0 0 0 .025-.628c0-.487-.072-.94-.216-1.357a3.042 3.042 0 0 0-.628-1.08 2.871 2.871 0 0 0-1.011-.707 3.438 3.438 0 0 0-1.36-.255c-.51 0-.97.104-1.377.31-.409.207-.752.49-1.027.85-.276.36-.489.791-.638 1.294a5.746 5.746 0 0 0-.222 1.628c0 .593.058 1.146.175 1.66.117.513.305.955.565 1.325.26.371.597.662 1.011.873.414.212.923.318 1.528.318 1.147 0 2.143-.296 2.992-.89-.085-.454-.26-.803-.525-1.047a5.124 5.124 0 0 1-1.138.46 4.083 4.083 0 0 1-1.026.143c-.669 0-1.144-.196-1.425-.587-.282-.392-.438-.953-.47-1.683z"/></g><g><path fill="#fff" d="M35.94 40.166c.106-.392.309-.683.605-.874.732.16 1.215.63 1.449 1.413.424-.941 1.119-1.413 2.085-1.413.254 0 .536.032.844.096 0 .614-.134 1.133-.398 1.556-.096-.032-.314-.059-.653-.08-.722 0-1.289.402-1.703 1.207v5.177a4.208 4.208 0 0 1-.82.063c-.345 0-.618-.021-.82-.063V41.8c0-.72-.196-1.265-.588-1.635z"/></g><g><path fill="#fff" d="M53.29 41.865v3.7c0 .625.09 1.106.271 1.444-.276.234-.6.35-.971.35-.361 0-.608-.088-.74-.262-.133-.175-.2-.437-.2-.786v-4.034c0-.55-.071-.942-.214-1.174-.144-.233-.39-.35-.74-.35s-.709.087-1.075.262a3.049 3.049 0 0 0-.963.723v5.51c-.18.042-.451.063-.811.063a6.26 6.26 0 0 1-.462-.015 3.238 3.238 0 0 1-.366-.048v-7.813l.095-.095h.62c.574 0 .877.328.908.984.774-.709 1.618-1.064 2.53-1.064.712 0 1.242.236 1.593.707.35.47.525 1.104.525 1.898z"/></g><g><path fill="#fff" d="M60.357 37.926c.18.138.478.207.892.207.424-.01.694-.069.81-.175.118-.106.181-.35.192-.73-.01-.403-.074-.652-.191-.747-.117-.095-.387-.147-.811-.158-.372.01-.637.056-.796.135-.16.08-.24.336-.24.77 0 .275.049.508.144.698zm1.99 2.843c0-.434-.115-.778-.343-1.032-.228-.254-.544-.38-.947-.38h-.222c-.318 0-.653.02-1.003.063-.054.243-.08.444-.08.603 0 .159.026.354.08.587h.174c.256 0 .436.063.542.19.106.128.16.34.16.636v5.812a4.2 4.2 0 0 0 .819.063c.345 0 .618-.021.82-.063z"/></g><g><path fill="#fff" d="M73.362 39.388c.052.18.079.386.079.619 0 .233-.027.434-.08.603l-1.957-.032v4.734c0 .465.217.698.652.698h1.098c.086.235.128.473.128.714 0 .242-.01.4-.032.474-.616.076-1.21.113-1.782.113-1.115 0-1.672-.545-1.672-1.636v-5.08l-1.178.015a2.61 2.61 0 0 1-.064-.595c0-.218.022-.426.064-.627l1.178.032v-1.398c0-.381.064-.65.191-.81.128-.16.356-.238.684-.238h.621l.112.11v2.351z"/></g><g><path fill="#fff" d="M85.92 39.547l-2.1 7.447c-.192.666-.39 1.236-.598 1.707-.206.47-.446.854-.717 1.151-.27.296-.588.513-.954.65-.366.138-.794.208-1.282.208a7.13 7.13 0 0 1-.89-.072 3.638 3.638 0 0 1-.446-.095c-.128-.037-.191-.088-.191-.151 0-.18.031-.38.095-.603.064-.222.153-.392.27-.508.35.137.765.206 1.242.206.456 0 .828-.162 1.114-.485.287-.322.53-.817.732-1.484l.048-.19c-.34-.011-.605-.078-.796-.2-.19-.121-.334-.34-.43-.659l-2.1-6.938c.381-.16.716-.24 1.002-.24.414 0 .69.244.828.732l1.083 3.652c.052.17.127.447.222.834.096.386.217.886.366 1.5.01.074.059.111.144.111l1.75-6.717c.085-.021.183-.037.295-.047a4.511 4.511 0 0 1 .827.007c.154.017.3.045.439.088z"/></g></g></g></g></g></svg>