<svg id="Group_9499" data-name="Group 9499" xmlns="http://www.w3.org/2000/svg" width="24.35" height="19.937" viewBox="0 0 24.35 19.937">
  <g id="Group_885" data-name="Group 885">
    <path id="Path_1988" data-name="Path 1988" d="M261.666,68.944c.152,0,.3.152.609.152a1.533,1.533,0,0,0,.457-.152l11.414-8.066a3.193,3.193,0,0,0-2.892-1.978H252.992a3.121,3.121,0,0,0-2.892,1.978Z" transform="translate(-249.796 -58.9)" fill="#083d58"/>
    <path id="Path_1989" data-name="Path 1989" d="M264.51,69.6a3.8,3.8,0,0,1-4.566,0l-10.044-7V73.862a3.053,3.053,0,0,0,3.044,3.044h18.263a3.053,3.053,0,0,0,3.044-3.044V62.6Z" transform="translate(-249.9 -56.969)" fill="#083d58"/>
  </g>
</svg>
