<svg xmlns="http://www.w3.org/2000/svg" width="111.301" height="111.094" viewBox="0 0 111.301 111.094">
  <path id="Path_1578" data-name="Path 1578" d="M252.011,221.027c0-10.947-.17-15.283-8.939-21.739-5.817-4.282-18.2-6.847-26.969-10.6-5.217-2.233-6.134-9.7-5.627-18.38.165-2.827,11.868-11.554,11.868-35.955,0-13.132-8.494-24.419-25.983-24.419s-25.983,11.287-25.983,24.419c0,23.818,11.7,33.128,11.868,35.955.507,8.676-.41,16.147-5.627,18.38-8.772,3.754-21.152,6.319-26.969,10.6-8.77,6.456-8.939,10.792-8.939,21.739Z" transform="translate(-140.71 -109.933)" fill="#e5e5e5"/>
</svg>
