<svg xmlns="http://www.w3.org/2000/svg" width="76" height="77" viewBox="0 0 76 77"><g><g><g><path fill="#e9eef0" d="M37 76.706c-20.434 0-37-16.566-37-37v-2.672c0-20.435 16.566-37 37-37h1.898c20.434 0 37 16.565 37 37v2.672a37 37 0 0 1-37 37z"/></g><g opacity=".3"><path fill="#083d58" d="M58.906 59.863c0-4.122-.064-5.754-3.366-8.185-2.19-1.612-6.851-2.578-10.154-3.991-1.964-.841-2.31-3.654-2.118-6.92.062-1.065 4.468-4.35 4.468-13.538 0-4.945-3.198-9.194-9.783-9.194-6.585 0-9.783 4.25-9.783 9.194 0 8.967 4.406 12.473 4.468 13.537.191 3.267-.154 6.08-2.118 6.92-3.303 1.414-7.964 2.38-10.154 3.992C17.064 54.108 17 55.741 17 59.863z"/></g><g opacity=".3"><path fill="#083d58" d="M60.422 32.034h-2.356v4.712h-4.712v2.356h4.712v4.712h2.356v-4.712h4.712v-2.356h-4.712z"/></g></g></g></svg>