<svg xmlns="http://www.w3.org/2000/svg" viewBox="0 0 60 60"><defs><style>.cls-1{fill:#ffc44d;}.cls-2{fill:#083d58;}.cls-3{fill:none;}</style></defs><title>Ресурс 1</title><g id="Слой_2" data-name="Слой 2"><g id="Слой_1-2" data-name="Слой 1"><g id="Component_69_56" data-name="Component 69 56"><circle id="shutterstock_1119461021-2" data-name="shutterstock 1119461021-2" class="cls-1" cx="30" cy="30" r="30"/><g id="baseline-chat_bubble-24px" data-name="baseline-chat bubble-24px"><path id="Exclusion_2" data-name="Exclusion 2" class="cls-2" d="M16,45.74V19a3,3,0,0,1,3-3h23.8a3,3,0,0,1,3,3V36.82a3,3,0,0,1-3,3H22l-5.95,6ZM30,32.31v1.76h1.76V32.31Zm.88-8.82a1.77,1.77,0,0,1,1.77,1.76,1.7,1.7,0,0,1-.53,1.24L31,27.6a3.53,3.53,0,0,0-1,2.5v.44h1.76a3,3,0,0,1,1-2.5l.8-.81a2.84,2.84,0,0,0,.82-2,3.53,3.53,0,1,0-7.06,0h1.77A1.76,1.76,0,0,1,30.87,23.49Z"/><path id="Path_807" data-name="Path 807" class="cls-3" d="M14,14H47V47H14Z"/></g></g></g></g></svg>