<svg id="Component_96" data-name="Component 96" xmlns="http://www.w3.org/2000/svg" width="129.92" height="76.416" viewBox="0 0 129.92 76.416"><g id="Path_1" data-name="Path 1" transform="translate(21)"><path id="Path_6545" data-name="Path 6545" d="M1524.339,361.46c24.34,0,44.072-9.75,44.072-21.776s-19.731-21.776-44.072-21.776-44.072,9.75-44.072,21.776S1500,361.46,1524.339,361.46Z" transform="translate(-1480.267 -317.908)" fill="none"></path><path id="Path_6546" data-name="Path 6546" d="M1524.339,353.439c21.671,0,36.049-8.278,36.049-13.754s-14.378-13.754-36.049-13.754-36.049,8.278-36.049,13.754,14.378,13.754,36.049,13.754m0,8.023c-24.341,0-44.072-9.75-44.072-21.777s19.732-21.777,44.072-21.777,44.072,9.75,44.072,21.777S1548.679,361.461,1524.339,361.461Z" transform="translate(-1480.267 -317.908)" fill="white"></path></g><g id="Eternity" transform="translate(0 54.61)" style="isolation: isolate;"><g id="Group_12114" data-name="Group 12114" style="isolation: isolate;"><path id="Path_6547" data-name="Path 6547" d="M1433.826,440.428l-.025,1.228q.722-.073,1.588-.072h6.234a5.034,5.034,0,0,1-.073.986,1.433,1.433,0,0,1-1.636,1.2h-7.148a1.4,1.4,0,0,1-1.071-.422,1.634,1.634,0,0,1-.4-1.167V427.456l.167-.145h9.676a5.8,5.8,0,0,1,.072,1.023,3.189,3.189,0,0,1-.193,1.143h-7.22l.025,1.564v3.369l1.492-.023h4.525a4.1,4.1,0,0,1,.12,1.071,3.818,3.818,0,0,1-.12,1.047h-4.525c-.626,0-1.124-.008-1.492-.023Z" transform="translate(-1431.299 -427.19)" fill="white"></path><path id="Path_6548" data-name="Path 6548" d="M1476.381,432.7a3.292,3.292,0,0,1,.121.938,3.044,3.044,0,0,1-.121.914l-2.96-.048v7.176q0,1.056.987,1.057h1.66a3.181,3.181,0,0,1,.194,1.083,3.382,3.382,0,0,1-.048.719,22.194,22.194,0,0,1-2.7.171,2.213,2.213,0,0,1-2.527-2.479v-7.7l-1.78.023a3.873,3.873,0,0,1-.1-.9,4.523,4.523,0,0,1,.1-.95l1.78.048v-2.119a2,2,0,0,1,.289-1.228,1.26,1.26,0,0,1,1.035-.36h.939l.168.168v3.562Z" transform="translate(-1450.196 -428.056)" fill="white"></path><path id="Path_6549" data-name="Path 6549" d="M1510.782,442.83h-7.076a4.709,4.709,0,0,0,.709,2.552,2.472,2.472,0,0,0,2.155.889,6.161,6.161,0,0,0,1.552-.216,7.737,7.737,0,0,0,1.72-.7,2.776,2.776,0,0,1,.794,1.588,7.686,7.686,0,0,1-4.525,1.349,5.02,5.02,0,0,1-2.31-.482,4.132,4.132,0,0,1-1.529-1.323,5.657,5.657,0,0,1-.854-2.01,11.353,11.353,0,0,1-.265-2.515,8.727,8.727,0,0,1,.337-2.467,5.982,5.982,0,0,1,.964-1.962,4.457,4.457,0,0,1,1.552-1.287,4.535,4.535,0,0,1,2.082-.47,5.188,5.188,0,0,1,2.057.386,4.342,4.342,0,0,1,1.529,1.07,4.613,4.613,0,0,1,.951,1.637,6.309,6.309,0,0,1,.326,2.057q0,.482-.037.952A7.869,7.869,0,0,1,1510.782,442.83Zm-4.621-5.2q-2.286,0-2.454,3.394h4.862v-.312a3.845,3.845,0,0,0-.59-2.226A2.059,2.059,0,0,0,1506.16,437.63Z" transform="translate(-1466.208 -431.421)" fill="white"></path><path id="Path_6550" data-name="Path 6550" d="M1539.933,437.39a2.179,2.179,0,0,1,.914-1.324,2.827,2.827,0,0,1,2.19,2.142,3.259,3.259,0,0,1,3.153-2.142,6.332,6.332,0,0,1,1.276.146,4.374,4.374,0,0,1-.6,2.358,5.068,5.068,0,0,0-.988-.121,2.855,2.855,0,0,0-2.574,1.83v7.846a8.043,8.043,0,0,1-2.479,0v-8.256A3.254,3.254,0,0,0,1539.933,437.39Z" transform="translate(-1485.587 -431.566)" fill="white"></path><path id="Path_6551" data-name="Path 6551" d="M1582.9,439.918v5.609a4.739,4.739,0,0,0,.41,2.189,2.2,2.2,0,0,1-1.468.53,1.333,1.333,0,0,1-1.12-.4,1.967,1.967,0,0,1-.3-1.192v-6.113a3.6,3.6,0,0,0-.324-1.78,1.208,1.208,0,0,0-1.12-.529,3.747,3.747,0,0,0-1.625.4,4.612,4.612,0,0,0-1.456,1.095v8.352a5.821,5.821,0,0,1-1.227.1q-.386,0-.7-.024a4.9,4.9,0,0,1-.553-.073V436.235l.144-.145h.938q1.3,0,1.372,1.492a5.557,5.557,0,0,1,3.827-1.613,2.809,2.809,0,0,1,2.408,1.071A4.725,4.725,0,0,1,1582.9,439.918Z" transform="translate(-1502.321 -431.518)" fill="white"></path><path id="Path_6552" data-name="Path 6552" d="M1615.829,433.809v9.821a8.046,8.046,0,0,1-2.479,0v-8.809a1.515,1.515,0,0,0-.241-.964,1.014,1.014,0,0,0-.819-.289h-.264a4.111,4.111,0,0,1-.121-.889,4.444,4.444,0,0,1,.121-.914,12.455,12.455,0,0,1,1.517-.1h.337a1.824,1.824,0,0,1,1.432.577A2.259,2.259,0,0,1,1615.829,433.809Zm-3.009-4.308a2.346,2.346,0,0,1-.217-1.059c0-.658.12-1.047.361-1.168a3.118,3.118,0,0,1,1.2-.2,2.3,2.3,0,0,1,1.227.241q.265.216.29,1.132a1.636,1.636,0,0,1-.29,1.107,2.1,2.1,0,0,1-1.227.266A2.245,2.245,0,0,1,1612.821,429.5Z" transform="translate(-1521.553 -427.07)" fill="white"></path><path id="Path_6553" data-name="Path 6553" d="M1645.781,432.7a3.353,3.353,0,0,1,.12.938,3.1,3.1,0,0,1-.12.914l-2.961-.048v7.176q0,1.056.986,1.057h1.661a3.165,3.165,0,0,1,.193,1.083,3.282,3.282,0,0,1-.048.719,22.169,22.169,0,0,1-2.695.171,2.212,2.212,0,0,1-2.527-2.479v-7.7l-1.782.023a3.962,3.962,0,0,1-.1-.9,4.631,4.631,0,0,1,.1-.95l1.782.048v-2.119a2,2,0,0,1,.289-1.228,1.26,1.26,0,0,1,1.034-.36h.939l.169.168v3.562Z" transform="translate(-1534.849 -428.056)" fill="white"></path><path id="Path_6554" data-name="Path 6554" d="M1680.157,436.452l-3.176,11.288a20.884,20.884,0,0,1-.9,2.588,6.369,6.369,0,0,1-1.083,1.745,3.683,3.683,0,0,1-1.444.986,5.491,5.491,0,0,1-1.937.313c-.129,0-.321-.009-.577-.025s-.514-.044-.77-.084a5.473,5.473,0,0,1-.674-.145c-.193-.056-.289-.132-.289-.228a3.371,3.371,0,0,1,.144-.914,1.742,1.742,0,0,1,.409-.77,5.126,5.126,0,0,0,1.878.312,2.146,2.146,0,0,0,1.684-.734,6.031,6.031,0,0,0,1.107-2.25l.073-.289a2.383,2.383,0,0,1-1.2-.3,1.71,1.71,0,0,1-.649-1l-3.177-10.517a4.039,4.039,0,0,1,1.516-.362q.939,0,1.251,1.108l1.638,5.536q.119.384.337,1.263t.553,2.275c.016.112.089.168.217.168l2.647-10.18a2.908,2.908,0,0,1,.445-.072c.169-.017.357-.025.565-.025a6.819,6.819,0,0,1,.686.036,3.444,3.444,0,0,1,.663.133Z" transform="translate(-1550.237 -431.566)" fill="white"></path></g></g></svg>