<svg xmlns="http://www.w3.org/2000/svg" width="90" height="48.528" viewBox="0 0 90 48.528">
  <g id="Component_1" data-name="Component 1" transform="translate(1)">
    <g id="Path_1" data-name="Path 1" transform="translate(19.123)" fill="none">
      <path d="M26.377,25.753c14.568,0,26.377-5.765,26.377-12.877S40.944,0,26.377,0,0,5.765,0,12.877,11.809,25.753,26.377,25.753Z" stroke="none"/>
      <path d="M 26.37681198120117 20.75312232971191 C 32.58599853515625 20.75312232971191 38.58462524414063 19.56320571899414 42.83456420898438 17.48848724365234 C 46.23261260986328 15.82962894439697 47.75362396240234 13.97686386108398 47.75362396240234 12.87655830383301 C 47.75362396240234 11.77625274658203 46.23261260986328 9.923487663269043 42.83456420898438 8.264640808105469 C 38.58463668823242 6.18992280960083 32.58601379394531 5.00000524520874 26.37681198120117 5.00000524520874 C 20.16762351989746 5.00000524520874 14.16900062561035 6.18992280960083 9.919058799743652 8.264640808105469 C 6.521011829376221 9.923487663269043 5 11.77625274658203 5 12.87655830383301 C 5 13.97686386108398 6.521011829376221 15.82962894439697 9.919058799743652 17.48847579956055 C 14.16900062561035 19.56320571899414 20.16762351989746 20.75312232971191 26.37681198120117 20.75312232971191 M 26.37681198120117 25.75312232971191 C 11.80930614471436 25.75312232971191 2.164952945804544e-07 19.98808860778809 2.164952945804544e-07 12.87655830383301 C 2.164952945804544e-07 5.765028953552246 11.80930614471436 5.362656338547822e-06 26.37681198120117 5.362656338547822e-06 C 40.94432830810547 5.362656338547822e-06 52.75362396240234 5.765028953552246 52.75362396240234 12.87655830383301 C 52.75362396240234 19.98808860778809 40.94432830810547 25.75312232971191 26.37681198120117 25.75312232971191 Z" stroke="none" fill="#4f91b3"/>
    </g>
    <text id="Eternity" transform="translate(44 43.528)" fill="#083D58" stroke="rgba(0,0,0,0)" stroke-width="1" font-size="16" font-family="SegoeUI, Segoe UI" letter-spacing="0.3em"><tspan x="-43.57" y="0">Eternity</tspan></text>
    <path id="Path_2" data-name="Path 2" d="M-1.714-15.553a1.578,1.578,0,0,1-.148-.718q0-.669.247-.791A2.141,2.141,0,0,1-.791-17.2a1.592,1.592,0,0,1,.841.163q.181.147.2.767a1.1,1.1,0,0,1-.2.75,1.455,1.455,0,0,1-.841.179A1.556,1.556,0,0,1-1.714-15.553Z" transform="translate(63.917 49.175)" fill="#083d58"/>
  </g>
</svg>
