<svg xmlns="http://www.w3.org/2000/svg" xmlns:xlink="http://www.w3.org/1999/xlink" width="37.967" height="37.966" viewBox="0 0 37.967 37.966">
  <defs>
    <clipPath id="clip-path">
      <path id="Path_6505" data-name="Path 6505" d="M-533.294-48.377l4.938-3.607c.429-.355.761-.266.761.377v11c0,.732-.407.643-.761.377l-4.938-3.6ZM-550-51.578v8.205a3.358,3.358,0,0,0,3.371,3.341h11.961a.61.61,0,0,0,.614-.606v-8.205a3.358,3.358,0,0,0-3.371-3.341h-11.961A.61.61,0,0,0-550-51.578Z" transform="translate(550 52.191)" fill="#4f91b3"/>
    </clipPath>
  </defs>
  <g id="zoom-icon-seeklogo.com-1" transform="translate(657.373 231.373)">
    <path id="Subtraction_1" data-name="Subtraction 1" d="M18.981,37.967A18.988,18.988,0,0,1,11.592,1.493,18.988,18.988,0,0,1,26.37,36.476,18.864,18.864,0,0,1,18.981,37.967Zm0-36.444A17.46,17.46,0,0,0,6.635,31.33,17.46,17.46,0,1,0,31.328,6.638,17.347,17.347,0,0,0,18.981,1.524Z" transform="translate(-657.371 -231.374)" fill="#4f91b3"/>
    <g id="Group_11921" data-name="Group 11921" transform="translate(-649.781 -218.473)">
      <g id="Group_11920" data-name="Group 11920" transform="translate(0 0)" clip-path="url(#clip-path)">
        <path id="Path_6504" data-name="Path 6504" d="M-562.8-64.9h24.3v14.045h-24.3Z" transform="translate(561.854 63.96)" fill="#4f91b3"/>
      </g>
    </g>
  </g>
</svg>
