<svg xmlns="http://www.w3.org/2000/svg" width="567.505" height="566.447" viewBox="0 0 567.505 566.447">
  <path id="Path_1578" data-name="Path 1578" d="M708.215,676.38c0-55.817-.867-77.927-45.58-110.844-29.659-21.831-92.784-34.911-137.511-54.052-26.6-11.388-31.276-49.48-28.69-93.718.843-14.413,60.511-58.91,60.511-183.327,0-66.957-43.308-124.506-132.484-124.506S291.98,167.482,291.98,234.439c0,121.441,59.669,168.913,60.511,183.327C355.077,462,350.4,500.1,323.8,511.484c-44.727,19.141-107.852,32.222-137.509,54.052-44.715,32.917-45.58,55.028-45.58,110.844Z" transform="translate(-140.71 -109.933)" fill="#d4d4d4" opacity="0.3"/>
</svg>