<svg xmlns="http://www.w3.org/2000/svg" width="52.465" height="57.031" viewBox="0 0 52.465 57.031">
  <g id="Shield_security_icon" data-name="Shield security icon" transform="translate(-509.998 -405.299)">
    <path id="Path_6579" data-name="Path 6579" d="M551.353,443.3A24.1,24.1,0,0,1,534.4,457.643,24.1,24.1,0,0,1,517.45,443.3c-1.665-3.794-2.743-12.785-3.207-26.731a27.788,27.788,0,0,0,5.169.494,22.523,22.523,0,0,0,11.121-2.792,21.362,21.362,0,0,0,3.868-2.792,21.366,21.366,0,0,0,3.868,2.792,22.478,22.478,0,0,0,10.978,2.791l4.47-4.592a20.246,20.246,0,0,1-13.333-1.957,18.721,18.721,0,0,1-5.345-4.445l-.638-.765-.638.765a18.724,18.724,0,0,1-5.345,4.445c-7.022,3.873-14.447,1.936-17.314.923L510,411.042v1.172c0,5.056.192,10.175.584,15.213.651,8.37,1.01,12.981,3.076,17.627a30.816,30.816,0,0,0,9.24,12.016,28.719,28.719,0,0,0,11.218,5.193l.286.066.286-.066a28.719,28.719,0,0,0,11.218-5.193,30.816,30.816,0,0,0,9.24-12.016c1.944-4.372,2.376-8.713,2.963-16.185l-4.675,4.639C552.894,438.092,552.2,441.366,551.353,443.3Z" transform="translate(0 0)" fill="#083d58"/>
    <path id="Path_6580" data-name="Path 6580" d="M663.922,594.671l-3.488,3.135a.975.975,0,0,0-.074,1.377l15.605,17.366a.977.977,0,0,0,1.409.043l27.433-27a.975.975,0,0,0,.011-1.379l-3.29-3.343a.975.975,0,0,0-1.379-.011l-22.481,22.126a.975.975,0,0,1-1.409-.043l-1.628-1.812L665.3,594.744A.975.975,0,0,0,663.922,594.671Z" transform="translate(-142.636 -170.351)" fill="#4f91b3"/>
  </g>
</svg>
