<svg xmlns="http://www.w3.org/2000/svg" width="85.92" height="50.536" viewBox="0 0 85.92 50.536"><defs><style>.a{fill:none;}.b{fill:#4f91b3;}.c{isolation:isolate;}.d{fill:#083d58;}</style></defs><g transform="translate(14)"><path class="a" d="M348.913,354.21c16.1,0,29.146-6.448,29.146-14.4s-13.048-14.4-29.146-14.4-29.146,6.448-29.146,14.4S332.816,354.21,348.913,354.21Z" transform="translate(-319.767 -325.408)"/><path class="b" d="M348.913,348.905c14.332,0,23.84-5.475,23.84-9.1s-9.509-9.1-23.84-9.1-23.84,5.475-23.84,9.1,9.509,9.1,23.84,9.1m0,5.306c-16.1,0-29.146-6.448-29.146-14.4s13.049-14.4,29.146-14.4,29.146,6.448,29.146,14.4S365.01,354.211,348.913,354.211Z" transform="translate(-319.767 -325.408)"/></g><g class="c" transform="translate(0 36.115)"><g class="c"><path class="d" d="M272.47,443.485l-.016.812q.477-.048,1.05-.048h4.123a3.328,3.328,0,0,1-.048.652.948.948,0,0,1-1.082.8h-4.727a.927.927,0,0,1-.708-.279,1.08,1.08,0,0,1-.262-.772v-9.741l.111-.1h6.4a3.839,3.839,0,0,1,.047.677,2.108,2.108,0,0,1-.127.756h-4.775l.016,1.035v2.228l.987-.016h2.992a2.706,2.706,0,0,1,.079.708,2.523,2.523,0,0,1-.079.692h-2.992q-.621,0-.987-.016Z" transform="translate(-270.799 -434.731)"/><path class="d" d="M313.42,438.963a2.178,2.178,0,0,1,.08.62,2.014,2.014,0,0,1-.08.6l-1.958-.032V444.9q0,.7.653.7h1.1a2.1,2.1,0,0,1,.128.716,2.238,2.238,0,0,1-.032.475,14.686,14.686,0,0,1-1.783.113,1.463,1.463,0,0,1-1.671-1.64v-5.093l-1.177.016a2.567,2.567,0,0,1-.064-.6,3,3,0,0,1,.064-.628l1.177.032v-1.4a1.325,1.325,0,0,1,.191-.812.833.833,0,0,1,.685-.238h.621l.111.111v2.356Z" transform="translate(-296.103 -435.89)"/><path class="d" d="M347.021,447.941h-4.679a3.115,3.115,0,0,0,.469,1.688,1.635,1.635,0,0,0,1.425.588,4.075,4.075,0,0,0,1.027-.143,5.117,5.117,0,0,0,1.138-.462,1.835,1.835,0,0,1,.525,1.05,5.083,5.083,0,0,1-2.992.892,3.319,3.319,0,0,1-1.528-.319,2.732,2.732,0,0,1-1.011-.875,3.741,3.741,0,0,1-.565-1.329,7.506,7.506,0,0,1-.175-1.663,5.773,5.773,0,0,1,.223-1.631,3.957,3.957,0,0,1,.638-1.3,2.947,2.947,0,0,1,1.027-.851,3,3,0,0,1,1.377-.311,3.431,3.431,0,0,1,1.36.255,2.871,2.871,0,0,1,1.011.708,3.051,3.051,0,0,1,.629,1.083,4.171,4.171,0,0,1,.215,1.36q0,.319-.024.629A5.211,5.211,0,0,1,347.021,447.941Zm-3.056-3.438q-1.512,0-1.623,2.244h3.215v-.206a2.543,2.543,0,0,0-.39-1.472A1.361,1.361,0,0,0,343.965,444.5Z" transform="translate(-317.543 -440.396)"/><path class="d" d="M379.433,444.442a1.441,1.441,0,0,1,.6-.876,1.869,1.869,0,0,1,1.448,1.417,2.155,2.155,0,0,1,2.085-1.417,4.189,4.189,0,0,1,.844.1,2.892,2.892,0,0,1-.4,1.56,3.353,3.353,0,0,0-.653-.08,1.888,1.888,0,0,0-1.7,1.21v5.189a5.319,5.319,0,0,1-1.639,0v-5.46A2.152,2.152,0,0,0,379.433,444.442Z" transform="translate(-343.492 -440.59)"/><path class="d" d="M419.19,446.081v3.709a3.133,3.133,0,0,0,.271,1.448,1.455,1.455,0,0,1-.971.351.881.881,0,0,1-.74-.263,1.3,1.3,0,0,1-.2-.788v-4.043a2.382,2.382,0,0,0-.214-1.177.8.8,0,0,0-.74-.35,2.478,2.478,0,0,0-1.075.263,3.05,3.05,0,0,0-.963.724v5.523a3.85,3.85,0,0,1-.811.064q-.256,0-.462-.016a3.229,3.229,0,0,1-.366-.048v-7.831l.1-.1h.62q.86,0,.908.987a3.675,3.675,0,0,1,2.531-1.067,1.858,1.858,0,0,1,1.592.708A3.125,3.125,0,0,1,419.19,446.081Z" transform="translate(-365.9 -440.526)"/><path class="d" d="M454,439.026v6.495a5.321,5.321,0,0,1-1.64,0V439.7a1,1,0,0,0-.159-.637.671.671,0,0,0-.542-.191h-.175a2.718,2.718,0,0,1-.08-.588,2.938,2.938,0,0,1,.08-.6,8.233,8.233,0,0,1,1-.064h.223a1.206,1.206,0,0,1,.947.382A1.494,1.494,0,0,1,454,439.026Zm-1.99-2.849a1.551,1.551,0,0,1-.144-.7c0-.435.08-.692.239-.772a2.062,2.062,0,0,1,.8-.135,1.524,1.524,0,0,1,.811.159q.175.143.192.748a1.082,1.082,0,0,1-.192.732,1.387,1.387,0,0,1-.811.176A1.485,1.485,0,0,1,452.01,436.178Z" transform="translate(-391.653 -434.57)"/><path class="d" d="M482.818,438.963a2.216,2.216,0,0,1,.079.62,2.048,2.048,0,0,1-.079.6l-1.958-.032V444.9q0,.7.652.7h1.1a2.092,2.092,0,0,1,.127.716,2.17,2.17,0,0,1-.032.475,14.67,14.67,0,0,1-1.782.113,1.463,1.463,0,0,1-1.671-1.64v-5.093l-1.178.016a2.622,2.622,0,0,1-.064-.6,3.065,3.065,0,0,1,.064-.628l1.178.032v-1.4a1.325,1.325,0,0,1,.191-.812.833.833,0,0,1,.684-.238h.621l.112.111v2.356Z" transform="translate(-409.457 -435.89)"/><path class="d" d="M515.981,443.821l-2.1,7.465a13.812,13.812,0,0,1-.6,1.711,4.211,4.211,0,0,1-.717,1.154,2.435,2.435,0,0,1-.955.652,3.631,3.631,0,0,1-1.281.207c-.085,0-.212-.006-.382-.016s-.34-.029-.509-.056a3.631,3.631,0,0,1-.446-.1c-.127-.037-.191-.087-.191-.151a2.226,2.226,0,0,1,.1-.6,1.151,1.151,0,0,1,.27-.509,3.39,3.39,0,0,0,1.242.206,1.419,1.419,0,0,0,1.114-.486,3.99,3.99,0,0,0,.732-1.488l.048-.191a1.577,1.577,0,0,1-.8-.2,1.131,1.131,0,0,1-.429-.661l-2.1-6.955a2.671,2.671,0,0,1,1-.239q.621,0,.827.733l1.083,3.661q.079.254.223.835t.366,1.5q.016.111.144.111l1.751-6.733a1.923,1.923,0,0,1,.294-.047c.112-.011.236-.017.374-.017a4.5,4.5,0,0,1,.454.024,2.273,2.273,0,0,1,.438.088Z" transform="translate(-430.061 -440.59)"/></g></g></svg>